<?xml version="1.0" ?><svg data-name="Layer 1" id="Layer_1" viewBox="0 0 32 32" xmlns="http://www.w3.org/2000/svg"><title/><path d="M29,16.5A13.08,13.08,0,0,0,25.7,8l0.7-.73L26,6.92A14.42,14.42,0,0,0,16,3,14.42,14.42,0,0,0,6,6.92L5.6,7.26,6.3,8A13.08,13.08,0,0,0,3,16.5a10.57,10.57,0,0,0,3,7.69V27H8a2,2,0,0,0,4,0V19a2,2,0,0,0-4,0H6v3.67A9.7,9.7,0,0,1,4,16.5,12,12,0,0,1,7,8.72L7.67,9.43,8,9.08A11.25,11.25,0,0,1,16,6a11.25,11.25,0,0,1,8,3.08l0.36,0.35L25,8.72a12,12,0,0,1,3,7.78,9.7,9.7,0,0,1-2,6.17V19H24a2,2,0,0,0-4,0v8a2,2,0,0,0,4,0h2V24.19A10.57,10.57,0,0,0,29,16.5ZM10,18a1,1,0,0,1,1,1v8a1,1,0,0,1-2,0V19A1,1,0,0,1,10,18ZM7,20H8v6H7V20ZM24.29,8A12.26,12.26,0,0,0,16,5,12.26,12.26,0,0,0,7.71,8L7,7.3A13.47,13.47,0,0,1,16,4a13.47,13.47,0,0,1,9,3.3ZM22,28a1,1,0,0,1-1-1V19a1,1,0,0,1,2,0v8A1,1,0,0,1,22,28Zm3-2H24V20h1v6Z"/></svg>