<svg xmlns="http://www.w3.org/2000/svg" width="200" height="146.702" viewBox="0 0 200 146.702"><g transform="translate(-12.435 -265.547)"><path d="M78.58,265.551a4.717,4.717,0,0,0-4.525,4.9c.163,6.479,2.461,11.582,6.084,14.777s7.966,4.46,11.991,5.362,7.9,1.454,10.879,2.41,4.81,2.073,6.018,4.039c3.047,4.956,2.845,10.592,1.865,17.018-.546,3.583-1.427,7.279-1.784,11.052H18.1a5.866,5.866,0,0,0-5.66,6.077v74.978a5.869,5.869,0,0,0,5.66,6.08H206.775a5.869,5.869,0,0,0,5.66-6.08V331.191a5.866,5.866,0,0,0-5.66-6.077h-88c.322-2.794.892-6.082,1.434-9.629,1.074-7.043,1.671-15.533-3.147-23.371-2.724-4.432-7.07-6.776-11.17-8.092s-8.2-1.853-11.686-2.635-6.205-1.794-7.831-3.228-2.765-3.309-2.882-7.941a4.718,4.718,0,0,0-4.916-4.665Zm-38.4,75.667H50.09a1.412,1.412,0,0,1,1.415,1.415v7.076a1.412,1.412,0,0,1-1.415,1.415H40.185a1.412,1.412,0,0,1-1.415-1.415v-7.076A1.412,1.412,0,0,1,40.185,341.218Zm27.546,0h9.906a1.412,1.412,0,0,1,1.415,1.415v7.076a1.412,1.412,0,0,1-1.415,1.415H67.731a1.412,1.412,0,0,1-1.415-1.415v-7.076A1.412,1.412,0,0,1,67.731,341.218Zm27.546,0h9.906a1.412,1.412,0,0,1,1.415,1.415v7.076a1.412,1.412,0,0,1-1.415,1.415H95.277a1.412,1.412,0,0,1-1.415-1.415v-7.076A1.412,1.412,0,0,1,95.277,341.218Zm27.55,0h9.906a1.412,1.412,0,0,1,1.415,1.415v7.076a1.412,1.412,0,0,1-1.415,1.415h-9.906a1.412,1.412,0,0,1-1.415-1.415v-7.076a1.412,1.412,0,0,1,1.415-1.415Zm27.546,0h9.906a1.412,1.412,0,0,1,1.415,1.415v7.076a1.412,1.412,0,0,1-1.415,1.415h-9.906a1.412,1.412,0,0,1-1.415-1.415v-7.076A1.412,1.412,0,0,1,150.374,341.218Zm27.546,0h9.906a1.412,1.412,0,0,1,1.415,1.415v7.076a1.412,1.412,0,0,1-1.415,1.415H177.92a1.412,1.412,0,0,1-1.415-1.415v-7.076A1.412,1.412,0,0,1,177.92,341.218Zm-137.736,21.7H50.09a1.412,1.412,0,0,1,1.415,1.415v7.076a1.412,1.412,0,0,1-1.415,1.415H40.185a1.412,1.412,0,0,1-1.415-1.415v-7.076A1.412,1.412,0,0,1,40.185,362.916Zm27.546,0h9.906a1.412,1.412,0,0,1,1.415,1.415v7.076a1.412,1.412,0,0,1-1.415,1.415H67.731a1.412,1.412,0,0,1-1.415-1.415v-7.076A1.412,1.412,0,0,1,67.731,362.916Zm27.546,0h9.906a1.412,1.412,0,0,1,1.415,1.415v7.076a1.412,1.412,0,0,1-1.415,1.415H95.277a1.412,1.412,0,0,1-1.415-1.415v-7.076a1.412,1.412,0,0,1,1.415-1.415Zm27.55,0h9.906a1.412,1.412,0,0,1,1.415,1.415v7.076a1.412,1.412,0,0,1-1.415,1.415h-9.906a1.412,1.412,0,0,1-1.415-1.415v-7.076A1.412,1.412,0,0,1,122.828,362.916Zm27.546,0h9.906a1.412,1.412,0,0,1,1.415,1.415v7.076a1.412,1.412,0,0,1-1.415,1.415h-9.906a1.412,1.412,0,0,1-1.415-1.415v-7.076A1.412,1.412,0,0,1,150.374,362.916Zm27.546,0h9.906a1.412,1.412,0,0,1,1.415,1.415v7.076a1.412,1.412,0,0,1-1.415,1.415H177.92a1.412,1.412,0,0,1-1.415-1.415v-7.076A1.412,1.412,0,0,1,177.92,362.916Zm-137.736,21.7H50.09a1.412,1.412,0,0,1,1.415,1.415v7.076a1.412,1.412,0,0,1-1.415,1.415H40.185a1.412,1.412,0,0,1-1.415-1.415V386.03A1.412,1.412,0,0,1,40.185,384.615Zm27.546,0h66.941a1.412,1.412,0,0,1,1.415,1.415v7.076a1.412,1.412,0,0,1-1.415,1.415H67.731a1.412,1.412,0,0,1-1.415-1.415V386.03A1.412,1.412,0,0,1,67.731,384.615Zm82.643,0h9.906a1.412,1.412,0,0,1,1.415,1.415v7.076a1.412,1.412,0,0,1-1.415,1.415h-9.906a1.412,1.412,0,0,1-1.415-1.415V386.03A1.412,1.412,0,0,1,150.374,384.615Zm27.546,0h9.906a1.412,1.412,0,0,1,1.415,1.415v7.076a1.412,1.412,0,0,1-1.415,1.415H177.92a1.412,1.412,0,0,1-1.415-1.415V386.03A1.412,1.412,0,0,1,177.92,384.615Z" transform="translate(0 0)"/></g></svg>